Coordinates
version=1
nRows=15
nColumns=19
inDegrees=yes

Units are S.I. units (second, meters, Newtons, ...)
If the header above contains a line with 'inDegrees', this indicates whether rotational values are in degrees (yes) or radians (no).

endheader
time	pelvis_tilt	pelvis_list	pelvis_rotation	pelvis_tx	pelvis_ty	pelvis_tz	hip_flexion_r	hip_adduction_r	hip_rotation_r	knee_angle_r	knee_angle_r_beta	ankle_angle_r	hip_flexion_l	hip_adduction_l	hip_rotation_l	knee_angle_l	knee_angle_l_beta	ankle_angle_l
     16.84000000	    -12.17786366	     10.44879584	      5.22669735	      2.17559455	      0.92403420	      0.90771017	    -12.16789137	    -15.77380644	    -14.77158671	     53.39624338	      0.93194026	    -14.47611706	     36.95712518	     13.57007421	    -13.70691557	     18.25678594	      0.31864103	      9.26409342
     16.84666667	    -11.46847881	     11.16791090	      5.45036105	      2.17543231	      0.91984695	      0.90750395	    -11.77905191	    -16.72964588	    -14.45172699	     57.16489680	      0.99771567	    -14.77363007	     36.53503997	     14.01554881	    -14.53143579	     21.11324937	      0.36849572	      8.97565952
     16.85333333	    -11.12032452	     11.67207446	      5.62128534	      2.17501160	      0.91513668	      0.90746618	    -10.74724519	    -17.45740384	    -13.81327431	     61.00699534	      1.06477294	    -14.91114244	     36.55699685	     14.19176508	    -15.19965852	     24.25920949	      0.42340308	      8.79020142
     16.86000000	    -10.63597108	     12.13819148	      5.86937016	      2.17446950	      0.91055841	      0.90741700	     -9.81042833	    -18.06850986	    -13.22677719	     64.72513624	      1.12966674	    -14.89252715	     36.36072557	     14.40708385	    -15.52508165	     27.42366866	      0.47863331	      8.82020946
     16.86666667	    -10.09728596	     12.52669139	      6.18010980	      2.17367054	      0.90610019	      0.90726608	     -8.84611103	    -18.55835990	    -12.66608484	     68.33667574	      1.19269999	    -14.67196310	     36.04243517	     14.64474124	    -15.50934299	     30.56908230	      0.53353114	      9.17288150
     16.87333333	     -9.72599947	     12.75076051	      6.55202042	      2.17253759	      0.90167618	      0.90708377	     -7.54312437	    -18.85088856	    -12.03249595	     71.87423809	      1.25444210	    -14.23830039	     35.83508863	     14.82637243	    -15.16468938	     33.65247444	      0.58734648	      9.92136390
     16.88000000	     -9.41078026	     12.85757152	      6.97021256	      2.17109123	      0.89754620	      0.90682208	     -6.04644579	    -18.99420064	    -11.36239177	     75.28111978	      1.31390340	    -13.57549879	     35.57103274	     14.99939341	    -14.56371786	     36.55267323	      0.63796450	     11.00898559
     16.88666667	     -9.15751384	     12.81257088	      7.37731641	      2.16931295	      0.89374663	      0.90651989	     -4.30704797	    -18.95696339	    -10.59607013	     78.54694356	      1.37090278	    -12.78104335	     35.25322102	     15.10490845	    -13.74654303	     39.25662101	      0.68515729	     12.49826939
     16.89333333	     -8.43048693	     12.99870747	      7.74176066	      2.16752707	      0.89098571	      0.90620063	     -3.11374621	    -19.20846981	    -10.07407390	     81.52309375	      1.42284640	    -11.80975417	     34.13600902	     15.47507756	    -12.88610205	     41.48368426	      0.72402688	     14.30985203
     16.90000000	     -8.85354217	     12.35225417	      8.06436213	      2.16499876	      0.88760190	      0.90590993	     -0.10759625	    -18.43384350	     -8.75730729	     84.50953307	      1.47496960	    -10.80108931	     34.30896167	     15.08807765	    -11.81106622	     43.74054729	      0.76341657	     16.16742292
     16.90666667	     -8.67855170	     11.95066701	      8.23141626	      2.16258583	      0.88548698	      0.90574469	      2.22161728	    -17.92579271	     -7.64549330	     87.12822159	      1.52067434	     -9.76392132	     33.51837427	     14.87878526	    -10.83731534	     45.45488242	      0.79333736	     18.19509273
     16.91333333	     -8.55739334	     11.47199566	      8.29173548	      2.16013267	      0.88397084	      0.90564564	      4.73248526	    -17.30453770	     -6.45418184	     89.47213475	      1.56158334	     -8.66218361	     32.55930977	     14.56316001	     -9.90273613	     46.76249108	      0.81615944	     20.16820247
     16.92000000	     -8.07114440	     11.19949739	      8.38434921	      2.15791011	      0.88358925	      0.90545493	      6.73018878	    -16.95961454	     -5.57396674	     91.40816935	      1.59537352	     -7.57119199	     30.85609592	     14.49178790	     -8.86035775	     47.49587155	      0.82895934	     22.08938595
     16.92666667	     -8.53946862	     10.32039633	      8.04549153	      2.15530224	      0.88273277	      0.90582162	     10.27439231	    -15.75664064	     -3.91470811	     93.23758911	      1.62730292	     -6.64810081	     30.22703127	     13.56736126	     -8.30794497	     48.15009000	      0.84037761	     23.70145296
     16.93333333	     -8.08740886	      9.93325730	      8.08383919	      2.15310739	      0.88368563	      0.90562696	     12.34648131	    -15.26329798	     -3.17851527	     94.47588425	      1.64891524	     -5.75434200	     28.17460307	     13.36322956	     -7.22524119	     48.15323277	      0.84043246	     24.87087084
